<svg width="31" height="35" viewBox="0 0 31 35" fill="none" xmlns="http://www.w3.org/2000/svg">
<path d="M8.40162 17.2836H17.2836M8.40162 23.2049H12.8426M1 3.96065V27.6458C1 28.431 1.31192 29.1841 1.86715 29.7393C2.42238 30.2946 3.17543 30.6065 3.96065 30.6065H21.7245C22.5097 30.6065 23.2628 30.2946 23.818 29.7393C24.3733 29.1841 24.6852 28.431 24.6852 27.6458V10.3882C24.6851 9.9938 24.6063 9.60336 24.4532 9.23984C24.3002 8.87633 24.0761 8.54705 23.794 8.27135L17.2214 1.84378C16.6683 1.30296 15.9255 1.0001 15.1519 1H3.96065C3.17543 1 2.42238 1.31192 1.86715 1.86715C1.31192 2.42238 1 3.17543 1 3.96065V3.96065Z" stroke="#83A021" stroke-width="2" stroke-linecap="round" stroke-linejoin="round"/>
<path d="M15.8027 1V6.9213C15.8027 7.70651 16.1147 8.45956 16.6699 9.01479C17.2251 9.57002 17.9782 9.88194 18.7634 9.88194H24.6847" stroke="#83A021" stroke-width="2" stroke-linejoin="round"/>
<circle cx="24.2889" cy="27.8426" r="5.8108" fill="white" stroke="#83A021" stroke-width="1.8"/>
<path d="M21.707 27.8428H26.8692" stroke="#83A021" stroke-width="1.8" stroke-linecap="round"/>
<path d="M24.2871 30.4229V25.2607" stroke="#83A021" stroke-width="1.8" stroke-linecap="round"/>
</svg>
