<svg width="62" height="12" viewBox="0 0 62 12" fill="none" xmlns="http://www.w3.org/2000/svg">
<path d="M1 5.25C0.585786 5.25 0.25 5.58579 0.25 6C0.25 6.41421 0.585786 6.75 1 6.75V5.25ZM61.5303 6.53033C61.8232 6.23744 61.8232 5.76256 61.5303 5.46967L56.7574 0.696699C56.4645 0.403806 55.9896 0.403806 55.6967 0.696699C55.4038 0.989593 55.4038 1.46447 55.6967 1.75736L59.9393 6L55.6967 10.2426C55.4038 10.5355 55.4038 11.0104 55.6967 11.3033C55.9896 11.5962 56.4645 11.5962 56.7574 11.3033L61.5303 6.53033ZM1 6.75H61V5.25H1V6.75Z" fill="#2C1B1B"/>
</svg>
